<svg baseProfile="full" xmlns="http://www.w3.org/2000/svg" height="40" width="100" viewBox="0 0 640 234"><defs><radialGradient id="a"><stop offset="48%" stop-color="#FBCB09"/><stop offset="100%" stop-color="#D2102A"/></radialGradient></defs><path fill="#FDC001" d="M30 0h580c16.569 0 30 13.431 30 30v174c0 16.569-13.431 30-30 30H30c-16.569 0-30-13.431-30-30V30C0 13.431 13.431 0 30 0z"/><path fill="#D2102A" d="M35 8h570c15.464 0 28 12.536 28 28v162c0 15.464-12.536 28-28 28H35c-15.464 0-28-12.536-28-28V36C7 20.536 19.536 8 35 8z"/><path fill="#FFF" d="M597 69v11h14v28s-.928 3-3 3h-24V80h6V52h7v10h15v7h-15zm-6 17v18h12c1.178 0 1-2 1-2V86h-13zm-37-32h10v-2h8v2h10v7h-28v-7zm6 83h-8v11h8v5h-8v17h9v5h-24c-2.925-.141-3-4-3-4v-27h5v24c.209 1.369 1 2 1 2h7v-33h-13v-5h26v5zm-29-25h-12v-6h6c1.13 0 1-2 1-2V60h-39v51h-7V52h53v57c0 2.853-2 3-2 3zm-49 41h2v18c0 3.741-3 4-3 4h-10v-4h7c2.207 0 2-2 2-2v-11h-10c-1.581.048-2-1-2-1v-17h4v13h6v-16h-10v-6h14v22zm-26-41h-36V91h40v16s.134 5-4 5zm-4-15h-23v7h23v-7zm7-10h-38v-7h38v7zm-38-18h38v7h-38v-7zm-1-12h16v-3h9v3h15v7h-40v-7zm7 74c-.621 2.298-3 9-3 9v34h-5v-29h-4v-5c3.959-.13 4-1 4-1l3-8h5zm-12-19h-9V73h-3v-7c2.773-3.384 7-14 7-14h9c-.042 3.819-4 12-4 12v48zm-32-5s-.467 4-4 4h-10v-8h6V60h-47v-8h58v8h-3v47zm-15-5s-.447 6-3 6h-35V64h38v38zm-8-30h-20v29h20V72zm12 59h9v2h23v25h2v5h-2v9s.265 1.91-2 2h-14v-4h8s2-.321 2-1v-6h-6l-15 11h-14v-4h9l9-7h-16v-25h-2v-5h9v-2zm-1 27h27v-4h-27v4zm0-8h27v-4h-27v4zm0-12v4h27v-4h-27zm60 0l2-7h6l-5 12s-.478 2.046-2 2h-4v-5s2.232-.383 3-2zm19 5l-2-6c-.343-1.402-1-2-1-2h-5v-4h9l2 7c.662 1.442 2 2 2 2h2v5h-4c-1.531 0-3-2-3-2zm6 27s-.379 3.998-3 4c-2.621.002-12 0-12 0v-4h8s2.165-.145 2-2v-15h-11l-4 19s-.284 2-2 2h-6v-4h2s1.891-.242 2-2l2-15h-6v-5h28v22zm21-4h-9v-4h9v4zm13-30l1-4h13l1 3c1.431 2.388 5 3 5 3v3h-6c-1.232 0-2-2-2-2l-2-3h-5l-1 3c-.699 1.113-2 2-2 2h-6v-3c2.812.14 4-2 4-2zm19 14h-22v-4h22v4zm-18 12s.021 1.447 2 2v3h-3s-1.616-1.461-2-4l-1-10h4v9zm4-9h4l1 10s.072.475 1 1v3h-3s-1.496-1.055-2-3l-1-11zm14 22h-22v-5h22v5zm1-22l-1 11s-.605 2.576-2 3h-3v-4s1.52.124 2-2v-8h4zm-14-54l-2 6h-6l6-19-6-21h6l3 9 3-9h13l2 9 3-9h6l-6 19 5 17h-7l-1-3-3 7h-13l-3-6zm9 5l7-18-5-19-7 19 5 18zm24 33h-10v-5h10v5zm-1 32s-.671.881 3 1v5h-7s-1.733-1.031-2-4v-20h-3v-5h9v23zm39-74v6h-6s-2.298-.992-3-5l-4-32h8l3 29s-.115 2 2 2zm-12 9h25v7h-25v-7zm20-3h-5v-6s.902-.159 1-1l3-30h7l-3 33s-.915 4-3 4z"/><path fill="#FDC001" d="M189 8h76c56.415 86.896 47.757 156.668 6 218h-82V8z"/><path fill="#FFF" d="M35 8h225c15.095 31.805 25.167 58.401 21 117-7.894 57.338-29.014 80.453-55 101H35c-15.464 0-28-12.536-28-28V36C7 20.536 19.536 8 35 8z"/><path fill="url(#a)" d="M187.076 179.241c.183.063.365.139.548.192C175.421 197.28 154.882 209 131.594 209c-25.315 0-47.374-13.856-59.014-34.371-.004.012-.01.024-.013.036C54.72 162.461 43 141.922 43 118.635c0-25.951 14.555-48.485 35.924-59.876-.183-.063-.365-.139-.548-.192C90.579 40.72 111.118 29 134.406 29c25.315 0 47.374 13.856 59.014 34.371.004-.012.01-.024.013-.036C211.28 75.539 223 96.078 223 119.365c0 25.951-14.555 48.485-35.924 59.876zm-55.482 18.314c12.602 0 24.22-4.148 33.6-11.125-3.208.468-6.486.72-9.824.72-37.351 0-67.63-30.348-67.63-67.785 0-5.258.615-10.369 1.75-15.28-8.835 9.92-14.209 22.976-14.209 37.29 0 31.027 25.212 56.18 56.313 56.18zm35.211-78.92a56.157 56.157 0 0 0-6.942-27.124c.011.428.007.868.02 1.294a56.14 56.14 0 0 0-28.289-7.61 56.169 56.169 0 0 0-25.092 5.887c.1-.003.203-.002.303-.005a56.136 56.136 0 0 0-7.61 28.288 56.157 56.157 0 0 0 6.942 27.124c-.011-.428-.007-.868-.02-1.294a56.14 56.14 0 0 0 28.289 7.61 56.169 56.169 0 0 0 25.092-5.887c-.1.003-.203.002-.303.005a56.136 56.136 0 0 0 7.61-28.288zm-112.36 0a56.087 56.087 0 0 0 10.022 32.063 67.846 67.846 0 0 1-.658-9.328c0-37.351 30.349-67.63 67.785-67.63 5.179 0 10.216.593 15.06 1.695-9.754-8.182-22.315-13.114-36.029-13.114-31.027 0-56.18 25.213-56.18 56.314zm79.961-78.19c-12.602 0-24.22 4.148-33.6 11.125a67.998 67.998 0 0 1 9.824-.72c37.351 0 67.63 30.348 67.63 67.785 0 5.258-.615 10.369-1.75 15.28 8.835-9.92 14.209-22.976 14.209-37.29 0-31.027-25.212-56.18-56.313-56.18zm67.127 46.857c.423 3.051.658 6.161.658 9.328 0 37.351-30.349 67.63-67.785 67.63a67.804 67.804 0 0 1-15.06-1.695c9.754 8.182 22.315 13.114 36.029 13.114 31.027 0 56.18-25.213 56.18-56.314a56.087 56.087 0 0 0-10.022-32.063z"/></svg>