<svg xmlns="http://www.w3.org/2000/svg" width="39.781" height="31.625" viewBox="0 0 39.781 31.625">
  <metadata><?xpacket begin="﻿" id="W5M0MpCehiHzreSzNTczkc9d"?>
<x:xmpmeta xmlns:x="adobe:ns:meta/" x:xmptk="Adobe XMP Core 5.6-c138 79.159824, 2016/09/14-01:09:01        ">
   <rdf:RDF xmlns:rdf="http://www.w3.org/1999/02/22-rdf-syntax-ns#">
      <rdf:Description rdf:about=""/>
   </rdf:RDF>
</x:xmpmeta>
                                                                                                    
                                                                                                    
                                                                                                    
                                                                                                    
                                                                                                    
                                                                                                    
                                                                                                    
                                                                                                    
                                                                                                    
                                                                                                    
                                                                                                    
                                                                                                    
                                                                                                    
                                                                                                    
                                                                                                    
                                                                                                    
                                                                                                    
                                                                                                    
                                                                                                    
                                                                                                    
                           
<?xpacket end="w"?></metadata>
<defs>
    <style>
      .cls-1 {
        fill: #fff;
        fill-rule: evenodd;
      }
    </style>
  </defs>
  <path id="vip" class="cls-1" d="M37.859,10.292V35.335H1.505V10.349a3.479,3.479,0,1,1,2.313.2l7.045,11.544,7.231-11.847a3.479,3.479,0,1,1,3.3,0L28.561,22l6.97-11.421A3.478,3.478,0,1,1,37.859,10.292ZM7.984,25.992a3.114,3.114,0,1,0,3.12,3.114A3.117,3.117,0,0,0,7.984,25.992Zm11.758,0a3.114,3.114,0,1,0,3.119,3.114A3.117,3.117,0,0,0,19.742,25.992Zm11.638,0A3.114,3.114,0,1,0,34.5,29.107,3.117,3.117,0,0,0,31.38,25.992Z" transform="translate(0 -3.719)"/>
</svg>
